<svg baseProfile="full" height="200px" version="1.1" viewBox="0 0 900 200" width="900px" xml:space="preserve" xmlns="http://www.w3.org/2000/svg" xmlns:rdkit="http://www.rdkit.org/xml" xmlns:xlink="http://www.w3.org/1999/xlink">
<!-- END OF HEADER -->
<path class="bond-0" d="M 375.824,27.3646 L 381.289,51.3293" style="fill:none;fill-rule:evenodd;stroke:#0000FF;stroke-width:2.0px;stroke-linecap:butt;stroke-linejoin:miter;stroke-opacity:1"/>
<path class="bond-0" d="M 381.289,51.3293 L 386.754,75.2941" style="fill:none;fill-rule:evenodd;stroke:#000000;stroke-width:2.0px;stroke-linecap:butt;stroke-linejoin:miter;stroke-opacity:1"/>
<path class="bond-1" d="M 386.754,75.2941 L 343.283,115.615" style="fill:none;fill-rule:evenodd;stroke:#000000;stroke-width:2.0px;stroke-linecap:butt;stroke-linejoin:miter;stroke-opacity:1"/>
<path class="bond-1" d="M 388.298,90.0364 L 357.868,118.261" style="fill:none;fill-rule:evenodd;stroke:#000000;stroke-width:2.0px;stroke-linecap:butt;stroke-linejoin:miter;stroke-opacity:1"/>
<path class="bond-10" d="M 386.754,75.2941 L 443.408,92.781" style="fill:none;fill-rule:evenodd;stroke:#000000;stroke-width:2.0px;stroke-linecap:butt;stroke-linejoin:miter;stroke-opacity:1"/>
<path class="bond-2" d="M 343.283,115.615 L 348.748,139.579" style="fill:none;fill-rule:evenodd;stroke:#000000;stroke-width:2.0px;stroke-linecap:butt;stroke-linejoin:miter;stroke-opacity:1"/>
<path class="bond-2" d="M 348.748,139.579 L 354.213,163.544" style="fill:none;fill-rule:evenodd;stroke:#0000FF;stroke-width:2.0px;stroke-linecap:butt;stroke-linejoin:miter;stroke-opacity:1"/>
<path class="bond-3" d="M 364.316,175.845 L 388.718,183.377" style="fill:none;fill-rule:evenodd;stroke:#0000FF;stroke-width:2.0px;stroke-linecap:butt;stroke-linejoin:miter;stroke-opacity:1"/>
<path class="bond-3" d="M 388.718,183.377 L 413.12,190.909" style="fill:none;fill-rule:evenodd;stroke:#000000;stroke-width:2.0px;stroke-linecap:butt;stroke-linejoin:miter;stroke-opacity:1"/>
<path class="bond-3" d="M 375.134,166.774 L 392.216,172.046" style="fill:none;fill-rule:evenodd;stroke:#0000FF;stroke-width:2.0px;stroke-linecap:butt;stroke-linejoin:miter;stroke-opacity:1"/>
<path class="bond-3" d="M 392.216,172.046 L 409.297,177.319" style="fill:none;fill-rule:evenodd;stroke:#000000;stroke-width:2.0px;stroke-linecap:butt;stroke-linejoin:miter;stroke-opacity:1"/>
<path class="bond-4" d="M 413.12,190.909 L 456.592,150.588" style="fill:none;fill-rule:evenodd;stroke:#000000;stroke-width:2.0px;stroke-linecap:butt;stroke-linejoin:miter;stroke-opacity:1"/>
<path class="bond-5" d="M 456.592,150.588 L 513.246,168.075" style="fill:none;fill-rule:evenodd;stroke:#000000;stroke-width:2.0px;stroke-linecap:butt;stroke-linejoin:miter;stroke-opacity:1"/>
<path class="bond-5" d="M 468.587,141.881 L 508.245,154.121" style="fill:none;fill-rule:evenodd;stroke:#000000;stroke-width:2.0px;stroke-linecap:butt;stroke-linejoin:miter;stroke-opacity:1"/>
<path class="bond-11" d="M 456.592,150.588 L 443.408,92.781" style="fill:none;fill-rule:evenodd;stroke:#000000;stroke-width:2.0px;stroke-linecap:butt;stroke-linejoin:miter;stroke-opacity:1"/>
<path class="bond-6" d="M 513.246,168.075 L 556.717,127.755" style="fill:none;fill-rule:evenodd;stroke:#000000;stroke-width:2.0px;stroke-linecap:butt;stroke-linejoin:miter;stroke-opacity:1"/>
<path class="bond-7" d="M 556.717,127.755 L 543.534,69.9472" style="fill:none;fill-rule:evenodd;stroke:#000000;stroke-width:2.0px;stroke-linecap:butt;stroke-linejoin:miter;stroke-opacity:1"/>
<path class="bond-7" d="M 543.178,121.72 L 533.95,81.2549" style="fill:none;fill-rule:evenodd;stroke:#000000;stroke-width:2.0px;stroke-linecap:butt;stroke-linejoin:miter;stroke-opacity:1"/>
<path class="bond-8" d="M 543.534,69.9472 L 486.88,52.4603" style="fill:none;fill-rule:evenodd;stroke:#000000;stroke-width:2.0px;stroke-linecap:butt;stroke-linejoin:miter;stroke-opacity:1"/>
<path class="bond-9" d="M 486.88,52.4603 L 443.408,92.781" style="fill:none;fill-rule:evenodd;stroke:#000000;stroke-width:2.0px;stroke-linecap:butt;stroke-linejoin:miter;stroke-opacity:1"/>
<path class="bond-9" d="M 488.423,67.2027 L 457.993,95.4271" style="fill:none;fill-rule:evenodd;stroke:#000000;stroke-width:2.0px;stroke-linecap:butt;stroke-linejoin:miter;stroke-opacity:1"/>
<path class="atom-0" d="M 369.859 9.09091 L 375.362 17.9847 Q 375.907 18.8622, 376.785 20.4512 Q 377.662 22.0402, 377.71 22.1351 L 377.71 9.09091 L 379.939 9.09091 L 379.939 25.8823 L 377.638 25.8823 L 371.733 16.1585 Q 371.045 15.0201, 370.31 13.7157 Q 369.599 12.4112, 369.385 12.0081 L 369.385 25.8823 L 367.203 25.8823 L 367.203 9.09091 L 369.859 9.09091 " fill="#0000FF"/>
<path class="atom-0" d="M 381.955 9.09091 L 384.232 9.09091 L 384.232 16.2296 L 392.817 16.2296 L 392.817 9.09091 L 395.094 9.09091 L 395.094 25.8823 L 392.817 25.8823 L 392.817 18.127 L 384.232 18.127 L 384.232 25.8823 L 381.955 25.8823 L 381.955 9.09091 " fill="#0000FF"/>
<path class="atom-0" d="M 395.908 25.2932 Q 396.315 24.2444, 397.285 23.6653 Q 398.256 23.0705, 399.602 23.0705 Q 401.277 23.0705, 402.216 23.9783 Q 403.155 24.8862, 403.155 26.4985 Q 403.155 28.142, 401.934 29.676 Q 400.729 31.21, 398.225 33.0258 L 403.343 33.0258 L 403.343 34.278 L 395.877 34.278 L 395.877 33.2293 Q 397.943 31.7579, 399.164 30.6622 Q 400.4 29.5665, 400.995 28.5803 Q 401.59 27.5942, 401.59 26.5767 Q 401.59 25.5123, 401.058 24.9175 Q 400.526 24.3227, 399.602 24.3227 Q 398.71 24.3227, 398.115 24.6827 Q 397.52 25.0427, 397.098 25.841 L 395.908 25.2932 " fill="#0000FF"/>
<path class="atom-3" d="M 352.754 165.027 L 358.257 173.92 Q 358.802 174.798, 359.68 176.387 Q 360.557 177.976, 360.605 178.071 L 360.605 165.027 L 362.834 165.027 L 362.834 181.818 L 360.533 181.818 L 354.628 172.094 Q 353.94 170.956, 353.205 169.651 Q 352.493 168.347, 352.28 167.944 L 352.28 181.818 L 350.098 181.818 L 350.098 165.027 L 352.754 165.027 " fill="#0000FF"/>
</svg>