<svg baseProfile="full" height="200px" version="1.1" viewBox="0 0 900 200" width="900px" xml:space="preserve" xmlns="http://www.w3.org/2000/svg" xmlns:rdkit="http://www.rdkit.org/xml" xmlns:xlink="http://www.w3.org/1999/xlink">
<!-- END OF HEADER -->
<path class="bond-0" d="M 541.083,57.206 L 517.921,76.6413" style="fill:none;fill-rule:evenodd;stroke:#000000;stroke-width:2.0px;stroke-linecap:butt;stroke-linejoin:miter;stroke-opacity:1"/>
<path class="bond-1" d="M 517.921,76.6413 L 489.508,66.3" style="fill:none;fill-rule:evenodd;stroke:#000000;stroke-width:2.0px;stroke-linecap:butt;stroke-linejoin:miter;stroke-opacity:1"/>
<path class="bond-2" d="M 489.508,66.3 L 479.672,74.5538" style="fill:none;fill-rule:evenodd;stroke:#000000;stroke-width:2.0px;stroke-linecap:butt;stroke-linejoin:miter;stroke-opacity:1"/>
<path class="bond-2" d="M 479.672,74.5538 L 469.836,82.8075" style="fill:none;fill-rule:evenodd;stroke:#FF7F00;stroke-width:2.0px;stroke-linecap:butt;stroke-linejoin:miter;stroke-opacity:1"/>
<path class="bond-3" d="M 467.892,90.9794 L 475.442,97.3146" style="fill:none;fill-rule:evenodd;stroke:#FF7F00;stroke-width:2.0px;stroke-linecap:butt;stroke-linejoin:miter;stroke-opacity:1"/>
<path class="bond-3" d="M 475.442,97.3146 L 482.992,103.65" style="fill:none;fill-rule:evenodd;stroke:#FF0000;stroke-width:2.0px;stroke-linecap:butt;stroke-linejoin:miter;stroke-opacity:1"/>
<path class="bond-3" d="M 471.779,86.3469 L 479.329,92.6822" style="fill:none;fill-rule:evenodd;stroke:#FF7F00;stroke-width:2.0px;stroke-linecap:butt;stroke-linejoin:miter;stroke-opacity:1"/>
<path class="bond-3" d="M 479.329,92.6822 L 486.879,99.0175" style="fill:none;fill-rule:evenodd;stroke:#FF0000;stroke-width:2.0px;stroke-linecap:butt;stroke-linejoin:miter;stroke-opacity:1"/>
<path class="bond-4" d="M 463.438,90.7727 L 458.759,98.8764" style="fill:none;fill-rule:evenodd;stroke:#FF7F00;stroke-width:2.0px;stroke-linecap:butt;stroke-linejoin:miter;stroke-opacity:1"/>
<path class="bond-4" d="M 458.759,98.8764 L 454.081,106.98" style="fill:none;fill-rule:evenodd;stroke:#FF0000;stroke-width:2.0px;stroke-linecap:butt;stroke-linejoin:miter;stroke-opacity:1"/>
<path class="bond-17" d="M 463.438,80.698 L 458.798,72.6608" style="fill:none;fill-rule:evenodd;stroke:#FF7F00;stroke-width:2.0px;stroke-linecap:butt;stroke-linejoin:miter;stroke-opacity:1"/>
<path class="bond-17" d="M 458.798,72.6608 L 454.157,64.6235" style="fill:none;fill-rule:evenodd;stroke:#FF0000;stroke-width:2.0px;stroke-linecap:butt;stroke-linejoin:miter;stroke-opacity:1"/>
<path class="bond-5" d="M 446.542,111.92 L 435.453,111.92" style="fill:none;fill-rule:evenodd;stroke:#FF0000;stroke-width:2.0px;stroke-linecap:butt;stroke-linejoin:miter;stroke-opacity:1"/>
<path class="bond-5" d="M 435.453,111.92 L 424.364,111.92" style="fill:none;fill-rule:evenodd;stroke:#FF7F00;stroke-width:2.0px;stroke-linecap:butt;stroke-linejoin:miter;stroke-opacity:1"/>
<path class="bond-6" d="M 416.469,110.349 L 406.304,114.049" style="fill:none;fill-rule:evenodd;stroke:#FF7F00;stroke-width:2.0px;stroke-linecap:butt;stroke-linejoin:miter;stroke-opacity:1"/>
<path class="bond-6" d="M 406.304,114.049 L 396.139,117.749" style="fill:none;fill-rule:evenodd;stroke:#FF0000;stroke-width:2.0px;stroke-linecap:butt;stroke-linejoin:miter;stroke-opacity:1"/>
<path class="bond-6" d="M 418.537,116.032 L 408.372,119.731" style="fill:none;fill-rule:evenodd;stroke:#FF7F00;stroke-width:2.0px;stroke-linecap:butt;stroke-linejoin:miter;stroke-opacity:1"/>
<path class="bond-6" d="M 408.372,119.731 L 398.208,123.431" style="fill:none;fill-rule:evenodd;stroke:#FF0000;stroke-width:2.0px;stroke-linecap:butt;stroke-linejoin:miter;stroke-opacity:1"/>
<path class="bond-7" d="M 421.881,116.958 L 424.062,129.327" style="fill:none;fill-rule:evenodd;stroke:#FF7F00;stroke-width:2.0px;stroke-linecap:butt;stroke-linejoin:miter;stroke-opacity:1"/>
<path class="bond-7" d="M 424.062,129.327 L 426.243,141.697" style="fill:none;fill-rule:evenodd;stroke:#000000;stroke-width:2.0px;stroke-linecap:butt;stroke-linejoin:miter;stroke-opacity:1"/>
<path class="bond-10" d="M 418.084,106.883 L 413.444,98.8459" style="fill:none;fill-rule:evenodd;stroke:#FF7F00;stroke-width:2.0px;stroke-linecap:butt;stroke-linejoin:miter;stroke-opacity:1"/>
<path class="bond-10" d="M 413.444,98.8459 L 408.803,90.8087" style="fill:none;fill-rule:evenodd;stroke:#FF0000;stroke-width:2.0px;stroke-linecap:butt;stroke-linejoin:miter;stroke-opacity:1"/>
<path class="bond-8" d="M 426.243,141.697 L 403.081,161.132" style="fill:none;fill-rule:evenodd;stroke:#000000;stroke-width:2.0px;stroke-linecap:butt;stroke-linejoin:miter;stroke-opacity:1"/>
<path class="bond-9" d="M 403.081,161.132 L 408.331,190.909" style="fill:none;fill-rule:evenodd;stroke:#000000;stroke-width:2.0px;stroke-linecap:butt;stroke-linejoin:miter;stroke-opacity:1"/>
<path class="bond-11" d="M 408.811,80.6496 L 413.49,72.5452" style="fill:none;fill-rule:evenodd;stroke:#FF0000;stroke-width:2.0px;stroke-linecap:butt;stroke-linejoin:miter;stroke-opacity:1"/>
<path class="bond-11" d="M 413.49,72.5452 L 418.169,64.4407" style="fill:none;fill-rule:evenodd;stroke:#FF7F00;stroke-width:2.0px;stroke-linecap:butt;stroke-linejoin:miter;stroke-opacity:1"/>
<path class="bond-12" d="M 424.858,55.0379 L 426.591,45.2137" style="fill:none;fill-rule:evenodd;stroke:#FF7F00;stroke-width:2.0px;stroke-linecap:butt;stroke-linejoin:miter;stroke-opacity:1"/>
<path class="bond-12" d="M 426.591,45.2137 L 428.323,35.3894" style="fill:none;fill-rule:evenodd;stroke:#FF0000;stroke-width:2.0px;stroke-linecap:butt;stroke-linejoin:miter;stroke-opacity:1"/>
<path class="bond-12" d="M 418.903,53.9878 L 420.635,44.1636" style="fill:none;fill-rule:evenodd;stroke:#FF7F00;stroke-width:2.0px;stroke-linecap:butt;stroke-linejoin:miter;stroke-opacity:1"/>
<path class="bond-12" d="M 420.635,44.1636 L 422.367,34.3394" style="fill:none;fill-rule:evenodd;stroke:#FF0000;stroke-width:2.0px;stroke-linecap:butt;stroke-linejoin:miter;stroke-opacity:1"/>
<path class="bond-13" d="M 417.503,58.2802 L 405.041,53.7445" style="fill:none;fill-rule:evenodd;stroke:#FF7F00;stroke-width:2.0px;stroke-linecap:butt;stroke-linejoin:miter;stroke-opacity:1"/>
<path class="bond-13" d="M 405.041,53.7445 L 392.58,49.2089" style="fill:none;fill-rule:evenodd;stroke:#000000;stroke-width:2.0px;stroke-linecap:butt;stroke-linejoin:miter;stroke-opacity:1"/>
<path class="bond-16" d="M 424.482,59.5502 L 435.555,59.5502" style="fill:none;fill-rule:evenodd;stroke:#FF7F00;stroke-width:2.0px;stroke-linecap:butt;stroke-linejoin:miter;stroke-opacity:1"/>
<path class="bond-16" d="M 435.555,59.5502 L 446.629,59.5502" style="fill:none;fill-rule:evenodd;stroke:#FF0000;stroke-width:2.0px;stroke-linecap:butt;stroke-linejoin:miter;stroke-opacity:1"/>
<path class="bond-14" d="M 392.58,49.2089 L 387.329,19.4322" style="fill:none;fill-rule:evenodd;stroke:#000000;stroke-width:2.0px;stroke-linecap:butt;stroke-linejoin:miter;stroke-opacity:1"/>
<path class="bond-15" d="M 387.329,19.4322 L 358.917,9.09091" style="fill:none;fill-rule:evenodd;stroke:#000000;stroke-width:2.0px;stroke-linecap:butt;stroke-linejoin:miter;stroke-opacity:1"/>
<path class="atom-3" d="M 466.141 81.4539 Q 467.604 81.4539, 468.342 82.1191 Q 469.08 82.7722, 469.08 83.9696 Q 469.08 85.1548, 468.318 85.8321 Q 467.568 86.4973, 466.141 86.4973 L 464.774 86.4973 L 464.774 90.0168 L 463.613 90.0168 L 463.613 81.4539 L 466.141 81.4539 M 466.141 85.5297 Q 466.975 85.5297, 467.423 85.1306 Q 467.87 84.7315, 467.87 83.9696 Q 467.87 83.2076, 467.423 82.8206 Q 466.987 82.4215, 466.141 82.4215 L 464.774 82.4215 L 464.774 85.5297 L 466.141 85.5297 " fill="#FF7F00"/>
<path class="atom-4" d="M 485.578 105.195 Q 485.578 103.139, 486.594 101.99 Q 487.61 100.841, 489.508 100.841 Q 491.407 100.841, 492.423 101.99 Q 493.439 103.139, 493.439 105.195 Q 493.439 107.275, 492.411 108.46 Q 491.383 109.633, 489.508 109.633 Q 487.622 109.633, 486.594 108.46 Q 485.578 107.287, 485.578 105.195 M 489.508 108.666 Q 490.815 108.666, 491.516 107.795 Q 492.23 106.912, 492.23 105.195 Q 492.23 103.514, 491.516 102.667 Q 490.815 101.808, 489.508 101.808 Q 488.202 101.808, 487.489 102.655 Q 486.787 103.502, 486.787 105.195 Q 486.787 106.924, 487.489 107.795 Q 488.202 108.666, 489.508 108.666 " fill="#FF0000"/>
<path class="atom-5" d="M 447.298 111.945 Q 447.298 109.889, 448.314 108.74 Q 449.33 107.591, 451.228 107.591 Q 453.127 107.591, 454.143 108.74 Q 455.159 109.889, 455.159 111.945 Q 455.159 114.025, 454.131 115.21 Q 453.103 116.383, 451.228 116.383 Q 449.342 116.383, 448.314 115.21 Q 447.298 114.037, 447.298 111.945 M 451.228 115.416 Q 452.535 115.416, 453.236 114.545 Q 453.95 113.662, 453.95 111.945 Q 453.95 110.264, 453.236 109.417 Q 452.535 108.558, 451.228 108.558 Q 449.922 108.558, 449.209 109.405 Q 448.507 110.251, 448.507 111.945 Q 448.507 113.674, 449.209 114.545 Q 449.922 115.416, 451.228 115.416 " fill="#FF0000"/>
<path class="atom-6" d="M 420.787 107.639 Q 422.25 107.639, 422.988 108.304 Q 423.726 108.957, 423.726 110.155 Q 423.726 111.34, 422.964 112.017 Q 422.214 112.682, 420.787 112.682 L 419.42 112.682 L 419.42 116.202 L 418.259 116.202 L 418.259 107.639 L 420.787 107.639 M 420.787 111.715 Q 421.621 111.715, 422.069 111.316 Q 422.516 110.917, 422.516 110.155 Q 422.516 109.393, 422.069 109.006 Q 421.633 108.607, 420.787 108.607 L 419.42 108.607 L 419.42 111.715 L 420.787 111.715 " fill="#FF7F00"/>
<path class="atom-7" d="M 388.649 122.286 Q 388.649 120.23, 389.665 119.081 Q 390.681 117.932, 392.58 117.932 Q 394.479 117.932, 395.495 119.081 Q 396.511 120.23, 396.511 122.286 Q 396.511 124.366, 395.482 125.551 Q 394.454 126.725, 392.58 126.725 Q 390.693 126.725, 389.665 125.551 Q 388.649 124.378, 388.649 122.286 M 392.58 125.757 Q 393.886 125.757, 394.587 124.886 Q 395.301 124.003, 395.301 122.286 Q 395.301 120.605, 394.587 119.758 Q 393.886 118.9, 392.58 118.9 Q 391.274 118.9, 390.56 119.746 Q 389.859 120.593, 389.859 122.286 Q 389.859 124.015, 390.56 124.886 Q 391.274 125.757, 392.58 125.757 " fill="#FF0000"/>
<path class="atom-11" d="M 401.944 85.7595 Q 401.944 83.7035, 402.96 82.5545 Q 403.976 81.4055, 405.874 81.4055 Q 407.773 81.4055, 408.789 82.5545 Q 409.805 83.7035, 409.805 85.7595 Q 409.805 87.8398, 408.777 89.025 Q 407.749 90.1982, 405.874 90.1982 Q 403.988 90.1982, 402.96 89.025 Q 401.944 87.8519, 401.944 85.7595 M 405.874 89.2306 Q 407.181 89.2306, 407.882 88.3598 Q 408.596 87.4769, 408.596 85.7595 Q 408.596 84.0784, 407.882 83.2318 Q 407.181 82.3731, 405.874 82.3731 Q 404.568 82.3731, 403.855 83.2197 Q 403.153 84.0663, 403.153 85.7595 Q 403.153 87.489, 403.855 88.3598 Q 404.568 89.2306, 405.874 89.2306 " fill="#FF0000"/>
<path class="atom-12" d="M 420.787 55.2688 Q 422.25 55.2688, 422.988 55.934 Q 423.726 56.5871, 423.726 57.7844 Q 423.726 58.9697, 422.964 59.6469 Q 422.214 60.3121, 420.787 60.3121 L 419.42 60.3121 L 419.42 63.8316 L 418.259 63.8316 L 418.259 55.2688 L 420.787 55.2688 M 420.787 59.3446 Q 421.621 59.3446, 422.069 58.9455 Q 422.516 58.5464, 422.516 57.7844 Q 422.516 57.0225, 422.069 56.6354 Q 421.633 56.2363, 420.787 56.2363 L 419.42 56.2363 L 419.42 59.3446 L 420.787 59.3446 " fill="#FF7F00"/>
<path class="atom-13" d="M 422.312 29.7977 Q 422.312 27.7417, 423.328 26.5927 Q 424.344 25.4438, 426.243 25.4438 Q 428.142 25.4438, 429.158 26.5927 Q 430.173 27.7417, 430.173 29.7977 Q 430.173 31.878, 429.145 33.0632 Q 428.117 34.2364, 426.243 34.2364 Q 424.356 34.2364, 423.328 33.0632 Q 422.312 31.8901, 422.312 29.7977 M 426.243 33.2688 Q 427.549 33.2688, 428.25 32.398 Q 428.964 31.5151, 428.964 29.7977 Q 428.964 28.1166, 428.25 27.27 Q 427.549 26.4113, 426.243 26.4113 Q 424.937 26.4113, 424.223 27.2579 Q 423.522 28.1045, 423.522 29.7977 Q 423.522 31.5272, 424.223 32.398 Q 424.937 33.2688, 426.243 33.2688 " fill="#FF0000"/>
<path class="atom-17" d="M 447.298 59.5744 Q 447.298 57.5183, 448.314 56.3694 Q 449.33 55.2204, 451.228 55.2204 Q 453.127 55.2204, 454.143 56.3694 Q 455.159 57.5183, 455.159 59.5744 Q 455.159 61.6546, 454.131 62.8399 Q 453.103 64.013, 451.228 64.013 Q 449.342 64.013, 448.314 62.8399 Q 447.298 61.6667, 447.298 59.5744 M 451.228 63.0455 Q 452.535 63.0455, 453.236 62.1747 Q 453.95 61.2918, 453.95 59.5744 Q 453.95 57.8933, 453.236 57.0467 Q 452.535 56.188, 451.228 56.188 Q 449.922 56.188, 449.209 57.0346 Q 448.507 57.8812, 448.507 59.5744 Q 448.507 61.3039, 449.209 62.1747 Q 449.922 63.0455, 451.228 63.0455 " fill="#FF0000"/>
</svg>