<svg baseProfile="full" height="200px" version="1.1" viewBox="0 0 900 200" width="900px" xml:space="preserve" xmlns="http://www.w3.org/2000/svg" xmlns:rdkit="http://www.rdkit.org/xml" xmlns:xlink="http://www.w3.org/1999/xlink">
<!-- END OF HEADER -->
<path class="bond-0" d="M 607.459,92.4761 L 538.925,155.59" style="fill:none;fill-rule:evenodd;stroke:#000000;stroke-width:2.0px;stroke-linecap:butt;stroke-linejoin:miter;stroke-opacity:1"/>
<path class="bond-1" d="M 538.925,155.59 L 500.63,143.62" style="fill:none;fill-rule:evenodd;stroke:#000000;stroke-width:2.0px;stroke-linecap:butt;stroke-linejoin:miter;stroke-opacity:1"/>
<path class="bond-1" d="M 500.63,143.62 L 462.335,131.651" style="fill:none;fill-rule:evenodd;stroke:#0000FF;stroke-width:2.0px;stroke-linecap:butt;stroke-linejoin:miter;stroke-opacity:1"/>
<path class="bond-2" d="M 437.665,139.155 L 409.565,165.032" style="fill:none;fill-rule:evenodd;stroke:#0000FF;stroke-width:2.0px;stroke-linecap:butt;stroke-linejoin:miter;stroke-opacity:1"/>
<path class="bond-2" d="M 409.565,165.032 L 381.466,190.909" style="fill:none;fill-rule:evenodd;stroke:#000000;stroke-width:2.0px;stroke-linecap:butt;stroke-linejoin:miter;stroke-opacity:1"/>
<path class="bond-4" d="M 446.518,112.273 L 438.063,74.5796" style="fill:none;fill-rule:evenodd;stroke:#0000FF;stroke-width:2.0px;stroke-linecap:butt;stroke-linejoin:miter;stroke-opacity:1"/>
<path class="bond-4" d="M 438.063,74.5796 L 429.609,36.886" style="fill:none;fill-rule:evenodd;stroke:#000000;stroke-width:2.0px;stroke-linecap:butt;stroke-linejoin:miter;stroke-opacity:1"/>
<path class="bond-3" d="M 381.466,190.909 L 292.541,163.114" style="fill:none;fill-rule:evenodd;stroke:#000000;stroke-width:2.0px;stroke-linecap:butt;stroke-linejoin:miter;stroke-opacity:1"/>
<path class="bond-5" d="M 429.609,36.886 L 340.683,9.09091" style="fill:none;fill-rule:evenodd;stroke:#000000;stroke-width:2.0px;stroke-linecap:butt;stroke-linejoin:miter;stroke-opacity:1"/>
<path class="atom-2" d="M 444.168 114.602 L 452.814 128.578 Q 453.671 129.957, 455.05 132.453 Q 456.429 134.95, 456.503 135.099 L 456.503 114.602 L 460.006 114.602 L 460.006 140.988 L 456.391 140.988 L 447.112 125.708 Q 446.031 123.919, 444.876 121.87 Q 443.758 119.82, 443.422 119.186 L 443.422 140.988 L 439.994 140.988 L 439.994 114.602 L 444.168 114.602 " fill="#0000FF"/>
</svg>