<svg baseProfile="full" height="200px" version="1.1" viewBox="0 0 900 200" width="900px" xml:space="preserve" xmlns="http://www.w3.org/2000/svg" xmlns:rdkit="http://www.rdkit.org/xml" xmlns:xlink="http://www.w3.org/1999/xlink">
<!-- END OF HEADER -->
<path class="bond-0" d="M 269.967,139.343 L 367.427,100.264" style="fill:none;fill-rule:evenodd;stroke:#000000;stroke-width:2.0px;stroke-linecap:butt;stroke-linejoin:miter;stroke-opacity:1"/>
<path class="bond-1" d="M 367.427,100.264 L 400.901,126.558" style="fill:none;fill-rule:evenodd;stroke:#000000;stroke-width:2.0px;stroke-linecap:butt;stroke-linejoin:miter;stroke-opacity:1"/>
<path class="bond-1" d="M 400.901,126.558 L 434.375,152.852" style="fill:none;fill-rule:evenodd;stroke:#FF0000;stroke-width:2.0px;stroke-linecap:butt;stroke-linejoin:miter;stroke-opacity:1"/>
<path class="bond-2" d="M 465.625,158.861 L 506.542,142.454" style="fill:none;fill-rule:evenodd;stroke:#FF0000;stroke-width:2.0px;stroke-linecap:butt;stroke-linejoin:miter;stroke-opacity:1"/>
<path class="bond-2" d="M 506.542,142.454 L 547.459,126.047" style="fill:none;fill-rule:evenodd;stroke:#000000;stroke-width:2.0px;stroke-linecap:butt;stroke-linejoin:miter;stroke-opacity:1"/>
<path class="bond-3" d="M 547.459,126.047 L 630.033,190.909" style="fill:none;fill-rule:evenodd;stroke:#000000;stroke-width:2.0px;stroke-linecap:butt;stroke-linejoin:miter;stroke-opacity:1"/>
<path class="bond-4" d="M 557.853,127.535 L 564.052,84.2567" style="fill:none;fill-rule:evenodd;stroke:#000000;stroke-width:2.0px;stroke-linecap:butt;stroke-linejoin:miter;stroke-opacity:1"/>
<path class="bond-4" d="M 564.052,84.2567 L 570.25,40.9783" style="fill:none;fill-rule:evenodd;stroke:#FF0000;stroke-width:2.0px;stroke-linecap:butt;stroke-linejoin:miter;stroke-opacity:1"/>
<path class="bond-4" d="M 537.065,124.558 L 543.263,81.2796" style="fill:none;fill-rule:evenodd;stroke:#000000;stroke-width:2.0px;stroke-linecap:butt;stroke-linejoin:miter;stroke-opacity:1"/>
<path class="bond-4" d="M 543.263,81.2796 L 549.461,38.0011" style="fill:none;fill-rule:evenodd;stroke:#FF0000;stroke-width:2.0px;stroke-linecap:butt;stroke-linejoin:miter;stroke-opacity:1"/>
<path class="atom-2" d="M 437 165.206 Q 437 158.406, 440.36 154.606 Q 443.72 150.806, 450 150.806 Q 456.28 150.806, 459.64 154.606 Q 463 158.406, 463 165.206 Q 463 172.086, 459.6 176.006 Q 456.2 179.886, 450 179.886 Q 443.76 179.886, 440.36 176.006 Q 437 172.126, 437 165.206 M 450 176.686 Q 454.32 176.686, 456.64 173.806 Q 459 170.886, 459 165.206 Q 459 159.646, 456.64 156.846 Q 454.32 154.006, 450 154.006 Q 445.68 154.006, 443.32 156.806 Q 441 159.606, 441 165.206 Q 441 170.926, 443.32 173.806 Q 445.68 176.686, 450 176.686 " fill="#FF0000"/>
<path class="atom-5" d="M 549.345 22.1847 Q 549.345 15.3847, 552.705 11.5847 Q 556.065 7.78465, 562.345 7.78465 Q 568.625 7.78465, 571.985 11.5847 Q 575.345 15.3847, 575.345 22.1847 Q 575.345 29.0647, 571.945 32.9847 Q 568.545 36.8647, 562.345 36.8647 Q 556.105 36.8647, 552.705 32.9847 Q 549.345 29.1047, 549.345 22.1847 M 562.345 33.6647 Q 566.665 33.6647, 568.985 30.7847 Q 571.345 27.8647, 571.345 22.1847 Q 571.345 16.6247, 568.985 13.8247 Q 566.665 10.9847, 562.345 10.9847 Q 558.025 10.9847, 555.665 13.7847 Q 553.345 16.5847, 553.345 22.1847 Q 553.345 27.9047, 555.665 30.7847 Q 558.025 33.6647, 562.345 33.6647 " fill="#FF0000"/>
</svg>