<svg baseProfile="full" height="200px" version="1.1" viewBox="0 0 900 200" width="900px" xml:space="preserve" xmlns="http://www.w3.org/2000/svg" xmlns:rdkit="http://www.rdkit.org/xml" xmlns:xlink="http://www.w3.org/1999/xlink">
<!-- END OF HEADER -->
<path class="bond-0" d="M 584.804,178.198 L 582.614,161.41" style="fill:none;fill-rule:evenodd;stroke:#00CC00;stroke-width:2.0px;stroke-linecap:butt;stroke-linejoin:miter;stroke-opacity:1"/>
<path class="bond-0" d="M 582.614,161.41 L 580.424,144.623" style="fill:none;fill-rule:evenodd;stroke:#000000;stroke-width:2.0px;stroke-linecap:butt;stroke-linejoin:miter;stroke-opacity:1"/>
<path class="bond-1" d="M 580.424,144.623 L 543.16,129.136" style="fill:none;fill-rule:evenodd;stroke:#000000;stroke-width:2.0px;stroke-linecap:butt;stroke-linejoin:miter;stroke-opacity:1"/>
<path class="bond-1" d="M 577.932,134.847 L 551.847,124.006" style="fill:none;fill-rule:evenodd;stroke:#000000;stroke-width:2.0px;stroke-linecap:butt;stroke-linejoin:miter;stroke-opacity:1"/>
<path class="bond-23" d="M 580.424,144.623 L 612.468,120.095" style="fill:none;fill-rule:evenodd;stroke:#000000;stroke-width:2.0px;stroke-linecap:butt;stroke-linejoin:miter;stroke-opacity:1"/>
<path class="bond-2" d="M 543.16,129.136 L 537.94,89.121" style="fill:none;fill-rule:evenodd;stroke:#000000;stroke-width:2.0px;stroke-linecap:butt;stroke-linejoin:miter;stroke-opacity:1"/>
<path class="bond-3" d="M 537.94,89.121 L 569.984,64.5929" style="fill:none;fill-rule:evenodd;stroke:#000000;stroke-width:2.0px;stroke-linecap:butt;stroke-linejoin:miter;stroke-opacity:1"/>
<path class="bond-3" d="M 547.652,91.8506 L 570.083,74.681" style="fill:none;fill-rule:evenodd;stroke:#000000;stroke-width:2.0px;stroke-linecap:butt;stroke-linejoin:miter;stroke-opacity:1"/>
<path class="bond-24" d="M 537.94,89.121 L 500.676,73.6341" style="fill:none;fill-rule:evenodd;stroke:#000000;stroke-width:2.0px;stroke-linecap:butt;stroke-linejoin:miter;stroke-opacity:1"/>
<path class="bond-4" d="M 569.984,64.5929 L 567.829,48.0679" style="fill:none;fill-rule:evenodd;stroke:#000000;stroke-width:2.0px;stroke-linecap:butt;stroke-linejoin:miter;stroke-opacity:1"/>
<path class="bond-4" d="M 567.829,48.0679 L 565.673,31.543" style="fill:none;fill-rule:evenodd;stroke:#FF0000;stroke-width:2.0px;stroke-linecap:butt;stroke-linejoin:miter;stroke-opacity:1"/>
<path class="bond-21" d="M 569.984,64.5929 L 607.248,80.0799" style="fill:none;fill-rule:evenodd;stroke:#000000;stroke-width:2.0px;stroke-linecap:butt;stroke-linejoin:miter;stroke-opacity:1"/>
<path class="bond-5" d="M 558.509,21.9783 L 543.005,15.5346" style="fill:none;fill-rule:evenodd;stroke:#FF0000;stroke-width:2.0px;stroke-linecap:butt;stroke-linejoin:miter;stroke-opacity:1"/>
<path class="bond-5" d="M 543.005,15.5346 L 527.5,9.09091" style="fill:none;fill-rule:evenodd;stroke:#000000;stroke-width:2.0px;stroke-linecap:butt;stroke-linejoin:miter;stroke-opacity:1"/>
<path class="bond-6" d="M 527.5,9.09091 L 495.456,33.619" style="fill:none;fill-rule:evenodd;stroke:#000000;stroke-width:2.0px;stroke-linecap:butt;stroke-linejoin:miter;stroke-opacity:1"/>
<path class="bond-7" d="M 495.456,33.619 L 500.676,73.6341" style="fill:none;fill-rule:evenodd;stroke:#000000;stroke-width:2.0px;stroke-linecap:butt;stroke-linejoin:miter;stroke-opacity:1"/>
<path class="bond-8" d="M 500.676,73.6341 L 468.632,98.1621" style="fill:none;fill-rule:evenodd;stroke:#000000;stroke-width:2.0px;stroke-linecap:butt;stroke-linejoin:miter;stroke-opacity:1"/>
<path class="bond-9" d="M 468.632,98.1621 L 452.671,91.5289" style="fill:none;fill-rule:evenodd;stroke:#000000;stroke-width:2.0px;stroke-linecap:butt;stroke-linejoin:miter;stroke-opacity:1"/>
<path class="bond-9" d="M 452.671,91.5289 L 436.711,84.8957" style="fill:none;fill-rule:evenodd;stroke:#0000FF;stroke-width:2.0px;stroke-linecap:butt;stroke-linejoin:miter;stroke-opacity:1"/>
<path class="bond-20" d="M 464.63,98.6841 L 466.798,115.298" style="fill:none;fill-rule:evenodd;stroke:#000000;stroke-width:2.0px;stroke-linecap:butt;stroke-linejoin:miter;stroke-opacity:1"/>
<path class="bond-20" d="M 466.798,115.298 L 468.965,131.912" style="fill:none;fill-rule:evenodd;stroke:#FF0000;stroke-width:2.0px;stroke-linecap:butt;stroke-linejoin:miter;stroke-opacity:1"/>
<path class="bond-20" d="M 472.634,97.6402 L 474.801,114.254" style="fill:none;fill-rule:evenodd;stroke:#000000;stroke-width:2.0px;stroke-linecap:butt;stroke-linejoin:miter;stroke-opacity:1"/>
<path class="bond-20" d="M 474.801,114.254 L 476.968,130.868" style="fill:none;fill-rule:evenodd;stroke:#FF0000;stroke-width:2.0px;stroke-linecap:butt;stroke-linejoin:miter;stroke-opacity:1"/>
<path class="bond-10" d="M 426.025,86.7649 L 412.675,96.9841" style="fill:none;fill-rule:evenodd;stroke:#0000FF;stroke-width:2.0px;stroke-linecap:butt;stroke-linejoin:miter;stroke-opacity:1"/>
<path class="bond-10" d="M 412.675,96.9841 L 399.324,107.203" style="fill:none;fill-rule:evenodd;stroke:#000000;stroke-width:2.0px;stroke-linecap:butt;stroke-linejoin:miter;stroke-opacity:1"/>
<path class="bond-11" d="M 399.324,107.203 L 362.06,91.7163" style="fill:none;fill-rule:evenodd;stroke:#000000;stroke-width:2.0px;stroke-linecap:butt;stroke-linejoin:miter;stroke-opacity:1"/>
<path class="bond-25" d="M 399.324,107.203 L 404.544,147.218" style="fill:none;fill-rule:evenodd;stroke:#000000;stroke-width:2.0px;stroke-linecap:butt;stroke-linejoin:miter;stroke-opacity:1"/>
<path class="bond-25" d="M 392.104,114.25 L 395.758,142.26" style="fill:none;fill-rule:evenodd;stroke:#000000;stroke-width:2.0px;stroke-linecap:butt;stroke-linejoin:miter;stroke-opacity:1"/>
<path class="bond-12" d="M 362.06,91.7163 L 330.016,116.244" style="fill:none;fill-rule:evenodd;stroke:#000000;stroke-width:2.0px;stroke-linecap:butt;stroke-linejoin:miter;stroke-opacity:1"/>
<path class="bond-26" d="M 362.06,91.7163 L 356.84,51.7013" style="fill:none;fill-rule:evenodd;stroke:#000000;stroke-width:2.0px;stroke-linecap:butt;stroke-linejoin:miter;stroke-opacity:1"/>
<path class="bond-26" d="M 353.274,86.758 L 349.62,58.7475" style="fill:none;fill-rule:evenodd;stroke:#000000;stroke-width:2.0px;stroke-linecap:butt;stroke-linejoin:miter;stroke-opacity:1"/>
<path class="bond-13" d="M 330.016,116.244 L 292.752,100.757" style="fill:none;fill-rule:evenodd;stroke:#000000;stroke-width:2.0px;stroke-linecap:butt;stroke-linejoin:miter;stroke-opacity:1"/>
<path class="bond-13" d="M 327.524,106.469 L 301.439,95.6277" style="fill:none;fill-rule:evenodd;stroke:#000000;stroke-width:2.0px;stroke-linecap:butt;stroke-linejoin:miter;stroke-opacity:1"/>
<path class="bond-17" d="M 330.016,116.244 L 335.236,156.259" style="fill:none;fill-rule:evenodd;stroke:#000000;stroke-width:2.0px;stroke-linecap:butt;stroke-linejoin:miter;stroke-opacity:1"/>
<path class="bond-14" d="M 292.752,100.757 L 287.532,60.7424" style="fill:none;fill-rule:evenodd;stroke:#000000;stroke-width:2.0px;stroke-linecap:butt;stroke-linejoin:miter;stroke-opacity:1"/>
<path class="bond-15" d="M 287.532,60.7424 L 319.576,36.2143" style="fill:none;fill-rule:evenodd;stroke:#000000;stroke-width:2.0px;stroke-linecap:butt;stroke-linejoin:miter;stroke-opacity:1"/>
<path class="bond-15" d="M 297.244,63.472 L 319.675,46.3023" style="fill:none;fill-rule:evenodd;stroke:#000000;stroke-width:2.0px;stroke-linecap:butt;stroke-linejoin:miter;stroke-opacity:1"/>
<path class="bond-16" d="M 319.576,36.2143 L 356.84,51.7013" style="fill:none;fill-rule:evenodd;stroke:#000000;stroke-width:2.0px;stroke-linecap:butt;stroke-linejoin:miter;stroke-opacity:1"/>
<path class="bond-18" d="M 335.236,156.259 L 351.196,162.893" style="fill:none;fill-rule:evenodd;stroke:#000000;stroke-width:2.0px;stroke-linecap:butt;stroke-linejoin:miter;stroke-opacity:1"/>
<path class="bond-18" d="M 351.196,162.893 L 367.157,169.526" style="fill:none;fill-rule:evenodd;stroke:#0000FF;stroke-width:2.0px;stroke-linecap:butt;stroke-linejoin:miter;stroke-opacity:1"/>
<path class="bond-18" d="M 343.121,150.797 L 354.294,155.44" style="fill:none;fill-rule:evenodd;stroke:#000000;stroke-width:2.0px;stroke-linecap:butt;stroke-linejoin:miter;stroke-opacity:1"/>
<path class="bond-18" d="M 354.294,155.44 L 365.466,160.083" style="fill:none;fill-rule:evenodd;stroke:#0000FF;stroke-width:2.0px;stroke-linecap:butt;stroke-linejoin:miter;stroke-opacity:1"/>
<path class="bond-19" d="M 377.843,167.657 L 391.193,157.438" style="fill:none;fill-rule:evenodd;stroke:#0000FF;stroke-width:2.0px;stroke-linecap:butt;stroke-linejoin:miter;stroke-opacity:1"/>
<path class="bond-19" d="M 391.193,157.438 L 404.544,147.218" style="fill:none;fill-rule:evenodd;stroke:#000000;stroke-width:2.0px;stroke-linecap:butt;stroke-linejoin:miter;stroke-opacity:1"/>
<path class="bond-22" d="M 607.248,80.0799 L 612.468,120.095" style="fill:none;fill-rule:evenodd;stroke:#000000;stroke-width:2.0px;stroke-linecap:butt;stroke-linejoin:miter;stroke-opacity:1"/>
<path class="bond-22" d="M 600.028,87.1261 L 603.682,115.137" style="fill:none;fill-rule:evenodd;stroke:#000000;stroke-width:2.0px;stroke-linecap:butt;stroke-linejoin:miter;stroke-opacity:1"/>
<path class="atom-0" d="M 581.237 185.034 Q 581.237 182.193, 582.561 180.708 Q 583.901 179.206, 586.435 179.206 Q 588.792 179.206, 590.051 180.869 L 588.985 181.741 Q 588.065 180.53, 586.435 180.53 Q 584.708 180.53, 583.788 181.692 Q 582.884 182.838, 582.884 185.034 Q 582.884 187.293, 583.82 188.456 Q 584.772 189.618, 586.612 189.618 Q 587.871 189.618, 589.34 188.859 L 589.792 190.07 Q 589.195 190.457, 588.291 190.683 Q 587.387 190.909, 586.386 190.909 Q 583.901 190.909, 582.561 189.392 Q 581.237 187.874, 581.237 185.034 " fill="#00CC00"/>
<path class="atom-0" d="M 591.439 178.512 L 592.924 178.512 L 592.924 190.764 L 591.439 190.764 L 591.439 178.512 " fill="#00CC00"/>
<path class="atom-5" d="M 559.518 24.6102 Q 559.518 21.8661, 560.874 20.3326 Q 562.23 18.7992, 564.764 18.7992 Q 567.299 18.7992, 568.654 20.3326 Q 570.01 21.8661, 570.01 24.6102 Q 570.01 27.3865, 568.638 28.9684 Q 567.266 30.5341, 564.764 30.5341 Q 562.246 30.5341, 560.874 28.9684 Q 559.518 27.4027, 559.518 24.6102 M 564.764 29.2428 Q 566.508 29.2428, 567.444 28.0806 Q 568.396 26.9023, 568.396 24.6102 Q 568.396 22.3665, 567.444 21.2366 Q 566.508 20.0905, 564.764 20.0905 Q 563.021 20.0905, 562.069 21.2204 Q 561.132 22.3503, 561.132 24.6102 Q 561.132 26.9184, 562.069 28.0806 Q 563.021 29.2428, 564.764 29.2428 " fill="#FF0000"/>
<path class="atom-10" d="M 428.842 76.961 L 432.587 83.0142 Q 432.958 83.6114, 433.555 84.6929 Q 434.152 85.7744, 434.185 85.8389 L 434.185 76.961 L 435.702 76.961 L 435.702 88.3893 L 434.136 88.3893 L 430.117 81.7713 Q 429.649 80.9965, 429.149 80.1087 Q 428.664 79.2209, 428.519 78.9465 L 428.519 88.3893 L 427.034 88.3893 L 427.034 76.961 L 428.842 76.961 " fill="#0000FF"/>
<path class="atom-10" d="M 426.897 64.3899 L 428.446 64.3899 L 428.446 69.2486 L 434.29 69.2486 L 434.29 64.3899 L 435.839 64.3899 L 435.839 75.8182 L 434.29 75.8182 L 434.29 70.5399 L 428.446 70.5399 L 428.446 75.8182 L 426.897 75.8182 L 426.897 64.3899 " fill="#0000FF"/>
<path class="atom-19" d="M 369.974 166.032 L 373.718 172.085 Q 374.09 172.683, 374.687 173.764 Q 375.284 174.846, 375.316 174.91 L 375.316 166.032 L 376.834 166.032 L 376.834 177.461 L 375.268 177.461 L 371.249 170.842 Q 370.781 170.068, 370.28 169.18 Q 369.796 168.292, 369.651 168.018 L 369.651 177.461 L 368.166 177.461 L 368.166 166.032 L 369.974 166.032 " fill="#0000FF"/>
<path class="atom-21" d="M 468.606 138.209 Q 468.606 135.465, 469.962 133.932 Q 471.318 132.398, 473.852 132.398 Q 476.386 132.398, 477.742 133.932 Q 479.098 135.465, 479.098 138.209 Q 479.098 140.986, 477.726 142.568 Q 476.354 144.133, 473.852 144.133 Q 471.334 144.133, 469.962 142.568 Q 468.606 141.002, 468.606 138.209 M 473.852 142.842 Q 475.595 142.842, 476.531 141.68 Q 477.484 140.502, 477.484 138.209 Q 477.484 135.966, 476.531 134.836 Q 475.595 133.69, 473.852 133.69 Q 472.109 133.69, 471.156 134.82 Q 470.22 135.95, 470.22 138.209 Q 470.22 140.518, 471.156 141.68 Q 472.109 142.842, 473.852 142.842 " fill="#FF0000"/>
</svg>