<?xml version="1.0" encoding="UTF-8" standalone="no"?>
<svg
   xmlns:dc="http://purl.org/dc/elements/1.1/"
   xmlns:cc="http://creativecommons.org/ns#"
   xmlns:rdf="http://www.w3.org/1999/02/22-rdf-syntax-ns#"
   xmlns:svg="http://www.w3.org/2000/svg"
   xmlns="http://www.w3.org/2000/svg"
   xmlns:sodipodi="http://sodipodi.sourceforge.net/DTD/sodipodi-0.dtd"
   xmlns:inkscape="http://www.inkscape.org/namespaces/inkscape"
   sodipodi:docname="pubchem.svg"
   inkscape:version="1.0 (4035a4fb49, 2020-05-01)"
   id="svg8"
   version="1.1"
   viewBox="0 0 173.56667 44.582249"
   height="44.582249mm"
   width="173.56667mm">
  <defs
     id="defs2" />
  <sodipodi:namedview
     inkscape:window-maximized="0"
     inkscape:window-y="41"
     inkscape:window-x="-9"
     inkscape:window-height="1361"
     inkscape:window-width="1720"
     showgrid="false"
     inkscape:document-rotation="0"
     inkscape:current-layer="g871"
     inkscape:document-units="mm"
     inkscape:cy="473.5909"
     inkscape:cx="211.80516"
     inkscape:zoom="0.98994949"
     inkscape:pageshadow="2"
     inkscape:pageopacity="0.0"
     borderopacity="1.0"
     bordercolor="#666666"
     pagecolor="#ffffff"
     id="base" />
  <metadata
     id="metadata5">
    <rdf:RDF>
      <cc:Work
         rdf:about="">
        <dc:format>image/svg+xml</dc:format>
        <dc:type
           rdf:resource="http://purl.org/dc/dcmitype/StillImage" />
        <dc:title></dc:title>
      </cc:Work>
    </rdf:RDF>
  </metadata>
  <g
     transform="translate(-17.451785,-9.24668)"
     id="layer1"
     inkscape:groupmode="layer"
     inkscape:label="Layer 1">
    <g
       transform="matrix(0.26458333,0,0,0.26458333,16.646072,34.348587)"
       id="g877"
       style="fill:#5b616b">
      <g
         id="g855">
        <g
           id="g945"
           transform="translate(-2.0203056,-385.87828)">
          <g
             id="g871">
            <g
               style="fill:#5b616b"
               id="g928"
               transform="translate(-9.7344799,276.50485)">
              <g
                 id="g906">
                <g
                   id="g888">
                  <path
                     id="path884"
                     d="m 329.5,19.5 67.3,41.8 -0.2,79.2 -67.6,37.5 -67.3,-41.8 0.2,-79.3 z"
                     stroke-linejoin="round"
                     stroke-linecap="round"
                     stroke-width="10"
                     fill="none"
                     stroke="#0071bc" />
                  <path
                     id="path886"
                     d="M 351.6,83.5 H 371 c -0.6,-5.4 -2,-10.2 -4.3,-14.4 -2.3,-4.2 -5.2,-7.7 -8.8,-10.6 -3.5,-2.8 -7.5,-5 -12,-6.4 -4.5,-1.5 -9.2,-2.3 -14.3,-2.3 -7,0 -13.3,1.3 -18.9,3.8 -5.5,2.6 -10.3,6 -14.1,10.5 -3.8,4.4 -6.8,9.7 -8.8,15.6 -2.1,6 -3.1,12.5 -3.1,19.5 0,6.8 1,13.1 3.1,19 2,5.9 5,11.1 8.8,15.4 3.8,4.4 8.6,7.8 14.1,10.3 5.6,2.5 11.9,3.7 18.9,3.7 5.7,0 10.8,-0.8 15.5,-2.6 4.7,-1.7 8.8,-4.3 12.3,-7.6 3.5,-3.3 6.3,-7.3 8.4,-12 2.2,-4.7 3.5,-10 4,-15.9 h -19.4 c -0.8,6.3 -2.9,11.4 -6.4,15.2 -3.4,3.9 -8.2,5.8 -14.4,5.8 -4.5,0 -8.3,-0.9 -11.5,-2.7 -3.2,-1.8 -5.7,-4.2 -7.7,-7.1 -1.9,-3 -3.4,-6.4 -4.3,-10.1 -0.9,-3.7 -1.3,-7.5 -1.3,-11.4 0,-4.1 0.4,-8.1 1.3,-11.9 0.9,-3.9 2.4,-7.3 4.3,-10.3 2,-3 4.5,-5.4 7.7,-7.2 3.2,-1.8 7,-2.7 11.5,-2.7 2.5,0 4.9,0.4 7.1,1.3 2.3,0.8 4.3,1.9 6.1,3.4 1.8,1.5 3.3,3.2 4.5,5.2 1.2,2 1.9,4.1 2.3,6.5 z" />
                </g>
                <g
                   id="g896">
                  <path
                     id="path890"
                     d="M 34.9,95.2 V 67.8 h 15.6 c 2.3,0 4.6,0.2 6.7,0.5 2.1,0.4 4,1 5.6,2 1.6,1 2.9,2.4 3.9,4.2 1,1.8 1.5,4.1 1.5,7 0,2.9 -0.5,5.3 -1.5,7.1 -1,1.7 -2.3,3.1 -3.9,4.1 -1.6,1 -3.5,1.7 -5.6,2 -2.1,0.3 -4.4,0.5 -6.7,0.5 z m -20.1,-43 v 91.4 H 34.9 V 110.8 H 56 c 5.7,0 10.6,-0.8 14.6,-2.5 4,-1.6 7.3,-3.8 9.8,-6.6 2.5,-2.7 4.4,-5.8 5.5,-9.4 1.2,-3.5 1.7,-7.1 1.7,-10.8 0,-3.7 -0.5,-7.4 -1.7,-10.9 C 84.8,67.1 82.9,64 80.4,61.3 77.9,58.6 74.6,56.4 70.6,54.7 66.6,53 61.7,52.2 56,52.2 Z" />
                  <path
                     id="path892"
                     d="M 160.4,143.6 V 77.4 h -18.2 v 34.7 c 0,6.7 -1.1,11.6 -3.4,14.5 -2.2,3 -5.8,4.4 -10.7,4.4 -4.4,0 -7.4,-1.3 -9.1,-4 -1.7,-2.7 -2.6,-6.7 -2.6,-12.2 V 77.4 H 98.3 v 40.7 c 0,4.1 0.3,7.8 1.1,11.2 0.7,3.4 1.9,6.2 3.7,8.6 1.8,2.3 4.3,4.2 7.4,5.4 3.1,1.3 7.1,2 12,2 3.8,0 7.6,-0.9 11.2,-2.6 3.7,-1.7 6.7,-4.5 9,-8.3 h 0.4 v 9.2 z" />
                  <path
                     id="path894"
                     d="m 222.7,110.6 c 0,2.7 -0.3,5.3 -0.9,7.9 -0.6,2.6 -1.5,4.8 -2.8,6.8 -1.3,1.9 -2.9,3.5 -4.8,4.7 -1.9,1.1 -4.3,1.7 -7,1.7 -2.6,0 -4.9,-0.6 -6.9,-1.7 -2,-1.2 -3.6,-2.8 -4.9,-4.7 -1.3,-2 -2.2,-4.2 -2.8,-6.8 -0.6,-2.6 -0.9,-5.2 -0.9,-7.9 0,-2.8 0.3,-5.5 0.9,-8.1 0.6,-2.6 1.5,-4.8 2.8,-6.8 1.3,-1.9 2.9,-3.5 4.9,-4.7 2,-1.1 4.3,-1.7 6.9,-1.7 2.7,0 5.1,0.6 7,1.7 1.9,1.2 3.5,2.8 4.8,4.7 1.3,2 2.2,4.2 2.8,6.8 0.6,2.6 0.9,5.3 0.9,8.1 z M 174.2,52.2 v 91.4 h 17.3 v -8.5 h 0.2 c 2,3.7 4.9,6.3 8.7,7.9 3.9,1.5 8.2,2.3 13.1,2.3 3.3,0 6.6,-0.7 9.8,-2.1 3.3,-1.4 6.2,-3.4 8.8,-6.3 2.6,-2.8 4.7,-6.4 6.3,-10.8 1.7,-4.4 2.5,-9.6 2.5,-15.7 0,-6 -0.8,-11.2 -2.5,-15.6 -1.6,-4.4 -3.7,-8 -6.3,-10.9 -2.6,-2.8 -5.5,-4.9 -8.8,-6.2 -3.2,-1.4 -6.5,-2.1 -9.8,-2.1 -4.1,0 -8.1,0.8 -11.9,2.4 -3.8,1.6 -6.8,4.1 -9,7.5 h -0.2 V 52.2 Z" />
                </g>
                <g
                   id="g904">
                  <path
                     id="path898"
                     d="m 419.8,52.2 v 91.4 H 438 v -34.7 c 0,-6.7 1.1,-11.6 3.3,-14.5 2.2,-3 5.8,-4.4 10.8,-4.4 4.3,0 7.4,1.3 9.1,4 1.7,2.7 2.5,6.8 2.5,12.2 v 37.4 h 18.2 v -40.7 c 0,-4.1 -0.4,-7.8 -1.1,-11.2 -0.7,-3.4 -2,-6.2 -3.8,-8.6 -1.8,-2.3 -4.2,-4.2 -7.3,-5.5 -3.1,-1.3 -7.1,-2 -12,-2 -3.4,0 -6.9,0.9 -10.5,2.6 -3.6,1.8 -6.5,4.6 -8.8,8.4 H 438 V 52.2 Z" />
                  <path
                     id="path900"
                     d="m 540.3,103.4 h -29.6 c 0.1,-1.3 0.4,-2.7 0.8,-4.4 0.5,-1.6 1.3,-3.1 2.5,-4.6 1.1,-1.4 2.7,-2.6 4.6,-3.6 1.9,-1 4.3,-1.5 7.2,-1.5 4.4,0 7.8,1.2 9.9,3.6 2.2,2.4 3.7,5.9 4.6,10.5 z m -29.6,11.5 h 47.7 c 0.4,-5.1 0,-10 -1.2,-14.7 -1.2,-4.7 -3.2,-8.9 -5.9,-12.5 -2.6,-3.7 -6.1,-6.6 -10.3,-8.8 -4.1,-2.2 -9,-3.3 -14.7,-3.3 -5,0 -9.6,0.9 -13.7,2.7 -4.2,1.8 -7.7,4.3 -10.7,7.4 -3,3.1 -5.3,6.8 -6.9,11 -1.7,4.3 -2.5,8.9 -2.5,13.9 0,5.1 0.8,9.8 2.4,14 1.6,4.3 3.8,8 6.7,11.1 2.9,3 6.5,5.4 10.6,7.1 4.2,1.6 8.9,2.5 14.1,2.5 7.5,0 13.9,-1.8 19.2,-5.2 5.3,-3.4 9.2,-9.1 11.8,-17 h -16 c -0.6,2.1 -2.2,4 -4.9,5.8 -2.6,1.9 -5.8,2.8 -9.4,2.8 -5.2,0 -9.1,-1.3 -11.8,-4 -2.7,-2.6 -4.2,-6.9 -4.5,-12.8 z" />
                  <path
                     id="path902"
                     d="m 569.7,77.4 v 66.2 h 18.2 v -38.4 c 0,-3.3 0.5,-5.9 1.4,-7.9 0.9,-2 2.1,-3.5 3.4,-4.6 1.3,-1.1 2.7,-1.8 4.1,-2.2 1.4,-0.3 2.5,-0.5 3.4,-0.5 2.9,0 5.1,0.4 6.6,1.4 1.5,1 2.5,2.3 3.2,3.9 0.6,1.7 1,3.4 1.1,5.3 0,2 0.1,3.9 0.1,5.9 v 37.1 h 18.2 v -36.9 c 0,-2 0.1,-4 0.4,-6.1 0.3,-2 0.9,-3.8 1.8,-5.3 0.9,-1.6 2.1,-2.9 3.7,-3.9 1.6,-1 3.7,-1.4 6.2,-1.4 2.6,0 4.6,0.4 6.1,1.2 1.5,0.9 2.6,2 3.4,3.5 0.8,1.4 1.2,3.2 1.4,5.1 0.2,2 0.3,4.1 0.3,6.3 v 37.5 h 18.1 V 99.3 c 0,-4.3 -0.6,-7.9 -1.8,-10.9 -1.2,-3.1 -2.8,-5.5 -5,-7.4 -2.1,-1.9 -4.6,-3.2 -7.6,-4.1 -3,-0.9 -6.3,-1.3 -9.8,-1.3 -4.6,0 -8.6,1.1 -11.9,3.4 -3.4,2.2 -6.1,4.7 -8,7.6 -1.8,-4.1 -4.4,-6.9 -7.9,-8.5 -3.5,-1.7 -7.3,-2.5 -11.5,-2.5 -4.3,0 -8.2,1 -11.5,2.8 -3.4,1.9 -6.3,4.6 -8.7,8 h -0.2 v -9 z" />
                </g>
              </g>
            </g>
          </g>
        </g>
      </g>
    </g>
  </g>
</svg>
